<svg width="235" height="207" viewBox="0 0 235 207" fill="none" xmlns="http://www.w3.org/2000/svg">
<path d="M39.9736 196.928C39.6737 197.337 39.584 197.788 39.7044 198.281C39.8249 198.774 40.1106 199.231 40.5615 199.651C40.8912 199.958 41.2294 200.174 41.5761 200.298C41.9204 200.419 42.2487 200.451 42.5609 200.393C42.8707 200.333 43.1363 200.185 43.3578 199.947C43.5431 199.748 43.6552 199.533 43.694 199.302C43.7281 199.071 43.7141 198.838 43.6519 198.603C43.5875 198.371 43.5011 198.148 43.3928 197.934C43.2822 197.722 43.1747 197.533 43.0704 197.368L42.5039 196.459C42.3574 196.228 42.2072 195.956 42.0533 195.645C41.8969 195.331 41.7819 194.995 41.7084 194.637C41.6302 194.279 41.6314 193.913 41.7121 193.539C41.7929 193.166 41.9959 192.805 42.3214 192.456C42.6966 192.053 43.141 191.788 43.6548 191.66C44.1662 191.529 44.7123 191.556 45.2933 191.739C45.8719 191.921 46.4472 192.278 47.0193 192.812C47.5527 193.309 47.9342 193.825 48.1641 194.361C48.3915 194.895 48.4732 195.42 48.4092 195.936C48.3428 196.449 48.1343 196.923 47.7837 197.358L46.8527 196.49C47.0907 196.186 47.2131 195.865 47.22 195.527C47.2222 195.189 47.1379 194.857 46.967 194.53C46.7914 194.203 46.5557 193.902 46.2599 193.626C45.9157 193.305 45.5546 193.073 45.1767 192.929C44.7965 192.787 44.4326 192.743 44.085 192.795C43.7352 192.849 43.4337 193.012 43.1806 193.284C42.95 193.531 42.8315 193.797 42.8251 194.081C42.8186 194.365 42.8829 194.66 43.018 194.967C43.153 195.275 43.3175 195.587 43.5116 195.903L44.1838 197.02C44.6097 197.729 44.8477 198.397 44.8978 199.024C44.9479 199.651 44.7391 200.215 44.2712 200.717C43.8825 201.134 43.4307 201.392 42.916 201.493C42.3965 201.593 41.8651 201.551 41.3216 201.366C40.7734 201.181 40.2617 200.867 39.7865 200.424C39.3065 199.976 38.9601 199.493 38.7472 198.972C38.5321 198.455 38.4533 197.946 38.5109 197.447C38.566 196.946 38.7626 196.501 39.1008 196.114L39.9736 196.928Z" fill="white"/>
<path d="M28.9453 183.49L29.7187 184.45C29.4883 184.73 29.3257 185.024 29.231 185.335C29.1342 185.643 29.0959 185.954 29.1161 186.27C29.1316 186.585 29.201 186.893 29.3242 187.194C29.4473 187.495 29.615 187.777 29.827 188.04C30.2138 188.52 30.6854 188.858 31.242 189.052C31.7965 189.244 32.4024 189.264 33.0598 189.113C33.7151 188.96 34.3861 188.607 35.0727 188.054C35.7593 187.501 36.2473 186.92 36.5366 186.313C36.824 185.702 36.933 185.106 36.8637 184.523C36.7924 183.938 36.5634 183.406 36.1767 182.926C35.9646 182.662 35.7247 182.438 35.457 182.254C35.1893 182.07 34.9044 181.935 34.6023 181.851C34.2956 181.766 33.9816 181.738 33.6602 181.767C33.3342 181.795 33.0116 181.892 32.6922 182.055L31.9188 181.095C32.3822 180.841 32.8509 180.68 33.3248 180.614C33.7988 180.547 34.2624 180.565 34.7156 180.668C35.1663 180.773 35.5921 180.956 35.9931 181.216C36.3921 181.473 36.7526 181.802 37.0749 182.202C37.6197 182.878 37.9389 183.613 38.0327 184.405C38.1264 185.198 37.9903 185.991 37.6245 186.783C37.2586 187.576 36.6575 188.309 35.8212 188.983C34.9849 189.657 34.1405 190.088 33.2881 190.276C32.4357 190.465 31.6322 190.429 30.8777 190.169C30.1232 189.908 29.4735 189.44 28.9288 188.764C28.6065 188.364 28.3621 187.941 28.1955 187.497C28.0268 187.05 27.9404 186.594 27.9362 186.129C27.9295 185.666 28.0092 185.21 28.1754 184.761C28.3391 184.315 28.5957 183.891 28.9453 183.49Z" fill="white"/>
<path d="M30.1498 172.9L21.3946 178.098L19.6383 175.14C19.2323 174.456 19.0158 173.825 18.9889 173.247C18.9592 172.672 19.0841 172.158 19.3636 171.707C19.6431 171.256 20.0408 170.877 20.5566 170.571C21.0725 170.264 21.5925 170.098 22.1167 170.072C22.6409 170.046 23.1464 170.184 23.6333 170.484C24.1173 170.787 24.5607 171.277 24.9634 171.955L26.3846 174.349L25.427 174.918L24.0261 172.558C23.7486 172.091 23.4569 171.755 23.1509 171.551C22.8432 171.345 22.5259 171.252 22.1989 171.272C21.8674 171.292 21.5264 171.406 21.1759 171.614C20.8253 171.822 20.5579 172.069 20.3735 172.356C20.1891 172.643 20.1111 172.972 20.1395 173.345C20.1651 173.719 20.3183 174.143 20.5991 174.616L21.7057 176.48L29.5204 171.84L30.1498 172.9ZM23.7702 171.114L26.4241 166.625L27.155 167.856L24.4808 172.311L23.7702 171.114Z" fill="white"/>
<path d="M15.5411 154.917C16.533 154.506 17.4644 154.329 18.3355 154.387C19.2066 154.446 19.9677 154.706 20.6187 155.168C21.2697 155.629 21.7617 156.261 22.0946 157.063C22.4275 157.865 22.5276 158.66 22.395 159.447C22.2623 160.234 21.9091 160.957 21.3354 161.615C20.7616 162.273 19.9788 162.808 18.9869 163.219C17.9951 163.631 17.0637 163.808 16.1926 163.749C15.3215 163.691 14.5604 163.431 13.9094 162.969C13.2583 162.507 12.7664 161.875 12.4335 161.073C12.1006 160.271 12.0005 159.477 12.1331 158.69C12.2657 157.903 12.6189 157.18 13.1927 156.522C13.7665 155.864 14.5493 155.329 15.5411 154.917ZM15.9985 156.019C15.1843 156.357 14.5536 156.779 14.1065 157.284C13.6581 157.786 13.3859 158.328 13.29 158.909C13.1929 159.488 13.2625 160.062 13.4988 160.631C13.7351 161.201 14.0931 161.657 14.5727 162C15.051 162.339 15.6268 162.529 16.3001 162.569C16.9721 162.606 17.7153 162.455 18.5295 162.117C19.3438 161.779 19.9751 161.359 20.4235 160.858C20.8706 160.353 21.1428 159.811 21.2399 159.232C21.3358 158.651 21.2656 158.075 21.0293 157.506C20.793 156.936 20.4356 156.482 19.9573 156.142C19.4777 155.799 18.9019 155.609 18.2299 155.572C17.5566 155.532 16.8128 155.682 15.9985 156.019Z" fill="white"/>
<path d="M18.0717 146.178L8.22127 148.755L7.90927 147.562L16.7015 145.262L15.5039 140.683L16.562 140.406L18.0717 146.178Z" fill="white"/>
<path d="M15.2804 133.75L5.18779 135.095L5.02493 133.873L14.0334 132.673L13.4082 127.981L14.4924 127.837L15.2804 133.75Z" fill="white"/>
<path d="M4.981 112.081L3.89084 111.992L4.50891 104.381L5.59907 104.47L5.33993 107.661L14.3982 108.396L14.2984 109.625L5.24014 108.89L4.981 112.081Z" fill="white"/>
<path d="M12.569 89.142C13.6162 89.3799 14.4782 89.7745 15.1551 90.326C15.8319 90.8774 16.3023 91.5297 16.5663 92.283C16.8302 93.0364 16.866 93.8364 16.6736 94.6832C16.4813 95.53 16.1034 96.2361 15.5399 96.8015C14.9764 97.3668 14.2704 97.752 13.4217 97.9568C12.573 98.1617 11.6251 98.1452 10.5779 97.9074C9.53074 97.6695 8.66871 97.2749 7.99184 96.7234C7.31497 96.172 6.84457 95.5197 6.58064 94.7664C6.3167 94.013 6.28091 93.213 6.47326 92.3662C6.66562 91.5194 7.04353 90.8133 7.607 90.2479C8.17048 89.6826 8.87654 89.2974 9.72521 89.0926C10.5739 88.8877 11.5218 88.9042 12.569 89.142ZM12.3047 90.3056C11.445 90.1103 10.6867 90.0893 10.0299 90.2426C9.37381 90.3927 8.83843 90.6772 8.42376 91.0962C8.00982 91.512 7.73458 92.0205 7.59802 92.6217C7.46147 93.2228 7.48967 93.8019 7.68262 94.359C7.87631 94.9128 8.23622 95.4007 8.76234 95.8227C9.2892 96.2415 9.9825 96.5485 10.8422 96.7438C11.702 96.9391 12.4599 96.9617 13.1159 96.8117C13.7727 96.6584 14.3081 96.3738 14.722 95.958C15.1367 95.539 15.4123 95.0289 15.5489 94.4277C15.6854 93.8266 15.6569 93.2491 15.4632 92.6952C15.2702 92.1382 14.9103 91.6503 14.3835 91.2315C13.8573 90.8095 13.1644 90.5009 12.3047 90.3056Z" fill="white"/>
<path d="M22.9173 75.2774L13.754 70.8386L16.4328 65.3084L17.4172 65.7852L15.2758 70.2058L18.372 71.7056L20.3747 67.5714L21.359 68.0482L19.3564 72.1825L22.4705 73.691L24.6465 69.1988L25.6309 69.6756L22.9173 75.2774Z" fill="white"/>
<path d="M21.1578 57.0362L26.139 57.1815L26.1828 57.1151L24.0961 52.5898L24.8965 51.3787L27.3786 56.8565L33.3911 56.9921L32.5908 58.2032L27.676 58.1018L27.6322 58.1682L29.6525 62.6496L28.8521 63.8608L26.4138 58.3166L20.3575 58.2474L21.1578 57.0362Z" fill="white"/>
<path d="M37.28 51.9728L29.6038 45.2837L31.864 42.69C32.3887 42.0878 32.9264 41.6902 33.4769 41.4973C34.0271 41.2998 34.5665 41.2686 35.0949 41.4038C35.6234 41.5389 36.1138 41.8036 36.566 42.1977C37.0183 42.5918 37.3488 43.0425 37.5575 43.5496C37.7684 44.0543 37.8172 44.5936 37.7039 45.1675C37.5882 45.7393 37.2701 46.3238 36.7497 46.921L35.1296 48.7801L34.305 48.0615L35.8989 46.2324C36.2582 45.8201 36.4755 45.427 36.5508 45.053C36.6261 44.679 36.5916 44.3302 36.4472 44.0065C36.3025 43.6782 36.0764 43.3801 35.7691 43.1123C35.4617 42.8444 35.1368 42.6624 34.7942 42.5661C34.4539 42.4674 34.105 42.4843 33.7477 42.6169C33.3878 42.7473 33.0261 43.0212 32.6624 43.4385L31.2384 45.0727L38.0901 51.0433L37.28 51.9728Z" fill="white"/>
<path d="M46.6465 41.9505L39.9239 34.3036L44.539 30.2464L45.2611 31.0678L41.5721 34.311L43.8436 36.8948L47.2937 33.8617L48.0158 34.6832L44.5657 37.7163L46.8504 40.315L50.5992 37.0194L51.3213 37.8408L46.6465 41.9505Z" fill="white"/>
<path d="M57.2581 33.2572L51.6076 24.7872L54.4696 22.8779C55.1313 22.4365 55.7499 22.1872 56.3253 22.13C56.8989 22.0701 57.4183 22.1678 57.8835 22.4232C58.3487 22.6786 58.7478 23.0558 59.0807 23.5549C59.4136 24.0539 59.6068 24.5645 59.6603 25.0866C59.7138 25.6087 59.6032 26.1208 59.3285 26.6228C59.052 27.122 58.5856 27.5905 57.9294 28.0283L55.6134 29.5734L54.9953 28.647L57.2783 27.124C57.7305 26.8223 58.0503 26.5133 58.2377 26.1971C58.4279 25.8789 58.5041 25.5572 58.4663 25.2318C58.4294 24.9018 58.2978 24.5672 58.0716 24.2281C57.8454 23.889 57.5842 23.6349 57.2882 23.4658C56.9921 23.2968 56.6589 23.2362 56.2884 23.2841C55.9161 23.3293 55.5012 23.5045 55.0435 23.8099L53.2403 25.0128L58.2838 32.5729L57.2581 33.2572ZM58.7067 26.7926L63.3294 29.2069L62.1383 30.0015L57.5487 27.5651L58.7067 26.7926Z" fill="white"/>
<path d="M65.3932 16.4629L70.0876 25.4979L68.9936 26.0663L64.2991 17.0313L65.3932 16.4629Z" fill="white"/>
<path d="M76.8931 22.2532L73.2105 12.7607L78.9394 10.5382L79.335 11.5579L74.7556 13.3344L75.9999 16.5419L80.2826 14.8804L80.6782 15.9001L76.3955 17.5616L77.647 20.7876L82.3005 18.9822L82.6961 20.0019L76.8931 22.2532Z" fill="white"/>
<path d="M95.3861 5.96774L97.6848 15.8867L96.5225 16.1561L89.3125 9.6208L89.2157 9.64325L91.0206 17.4312L89.8194 17.7095L87.5207 7.7906L88.6831 7.52121L95.9168 14.0713L96.0137 14.0489L94.2043 6.24162L95.3861 5.96774Z" fill="white"/>
<path d="M112.846 7.0992L111.617 7.19271C111.517 6.84462 111.366 6.54364 111.164 6.28977C110.965 6.03565 110.73 5.82751 110.459 5.66535C110.19 5.49963 109.897 5.38232 109.579 5.31341C109.262 5.24451 108.934 5.22287 108.597 5.24851C107.982 5.29526 107.437 5.49295 106.962 5.84156C106.49 6.18992 106.13 6.67768 105.882 7.30483C105.637 7.93174 105.548 8.68474 105.615 9.56383C105.681 10.4429 105.883 11.1738 106.22 11.7565C106.56 12.3389 106.99 12.7666 107.509 13.0395C108.032 13.3122 108.601 13.4252 109.215 13.3784C109.553 13.3528 109.873 13.2819 110.176 13.1657C110.48 13.0496 110.752 12.8909 110.993 12.6898C111.237 12.4851 111.437 12.2422 111.596 11.9609C111.757 11.6761 111.86 11.3557 111.906 10.9999L113.136 10.9064C113.083 11.4323 112.95 11.9094 112.736 12.3378C112.523 12.7662 112.245 13.138 111.904 13.4532C111.562 13.7651 111.17 14.0126 110.728 14.1957C110.29 14.3786 109.815 14.4896 109.303 14.5285C108.437 14.5944 107.651 14.4414 106.945 14.0697C106.238 13.698 105.662 13.1368 105.216 12.3863C104.77 11.6357 104.506 10.7251 104.425 9.65432C104.343 8.58355 104.466 7.64349 104.794 6.83413C105.121 6.02478 105.606 5.38295 106.248 4.90866C106.89 4.43436 107.644 4.16428 108.51 4.09842C109.022 4.05946 109.508 4.09725 109.969 4.21178C110.433 4.32606 110.858 4.51314 111.243 4.77301C111.628 5.02958 111.959 5.35346 112.235 5.74466C112.51 6.13256 112.714 6.58407 112.846 7.0992Z" fill="white"/>
<path d="M120.891 14.0903L121.567 3.9309L127.698 4.33877L127.626 5.4301L122.724 5.10408L122.496 8.53683L127.08 8.84174L127.007 9.93308L122.423 9.62817L122.194 13.0808L127.174 13.4121L127.102 14.5034L120.891 14.0903Z" fill="white"/>
<path d="M154.374 11.2157L154.769 10.196L161.889 12.958L161.493 13.9777L158.508 12.8197L155.221 21.2925L154.072 20.8466L157.359 12.3737L154.374 11.2157Z" fill="white"/>
<path d="M164.215 25.2525L169.206 16.3783L170.281 16.9828L168.058 20.9346L172.79 23.5963L175.013 19.6445L176.087 20.249L171.095 29.1231L170.021 28.5187L172.254 24.5496L167.522 21.8879L165.289 25.857L164.215 25.2525Z" fill="white"/>
<path d="M177.6 33.4486L183.8 25.3723L188.674 29.1143L188.008 29.9818L184.112 26.9907L182.017 29.7196L185.661 32.517L184.995 33.3845L181.351 30.5872L179.244 33.3318L183.203 36.3714L182.537 37.239L177.6 33.4486Z" fill="white"/>
<path d="M202.794 42.7653L195.149 49.4908L194.335 48.5651L201.979 41.8396L202.794 42.7653Z" fill="white"/>
<path d="M212.915 56.1587L204.528 61.9323L203.852 60.9495L207.29 51.8463L207.234 51.7644L200.649 56.2976L199.95 55.282L208.337 49.5084L209.013 50.4912L205.57 59.6221L205.626 59.704L212.227 55.1595L212.915 56.1587Z" fill="white"/>
<path d="M216.259 63.9924L217.239 63.5062L220.633 70.3468L219.653 70.833L218.23 67.9649L210.089 72.0043L209.541 70.8998L217.682 66.8605L216.259 63.9924Z" fill="white"/>
<path d="M214.031 81.0236L223.671 77.746L225.649 83.5638L224.614 83.9159L223.033 79.2654L219.775 80.3729L221.254 84.7221L220.219 85.0742L218.74 80.725L215.464 81.8388L217.071 86.5646L216.035 86.9167L214.031 81.0236Z" fill="white"/>
<path d="M217.993 94.157L227.982 92.1852L228.648 95.5604C228.802 96.3408 228.795 97.0077 228.627 97.5611C228.463 98.1138 228.173 98.5561 227.759 98.8878C227.345 99.2196 226.844 99.4436 226.255 99.5598C225.666 99.6759 225.121 99.6587 224.618 99.5079C224.115 99.3571 223.685 99.0587 223.326 98.6125C222.971 98.1657 222.717 97.5554 222.565 96.7815L222.026 94.0501L223.118 93.8345L223.65 96.5268C223.755 97.0601 223.918 97.4739 224.138 97.7683C224.359 98.0659 224.627 98.2596 224.942 98.3494C225.261 98.4419 225.62 98.4486 226.02 98.3697C226.42 98.2907 226.755 98.1469 227.024 97.9383C227.294 97.7297 227.478 97.4451 227.575 97.0846C227.676 96.7234 227.674 96.273 227.567 95.7332L227.147 93.6066L218.231 95.3666L217.993 94.157ZM223.408 97.9731L219.406 101.317L219.129 99.9124L223.138 96.6074L223.408 97.9731Z" fill="white"/>
<path d="M220.219 108.105L220.145 106.815L230.525 109.964L230.597 111.235L220.646 115.551L220.572 114.26L228.955 110.732L228.951 110.652L220.219 108.105ZM224.217 108.354L224.516 113.556L223.424 113.618L223.125 108.417L224.217 108.354Z" fill="white"/>
<path d="M226.785 131.163L226.895 129.935C227.255 129.894 227.577 129.795 227.86 129.637C228.144 129.483 228.388 129.285 228.593 129.044C228.8 128.807 228.964 128.537 229.085 128.235C229.205 127.933 229.28 127.614 229.311 127.277C229.366 126.663 229.261 126.093 228.995 125.566C228.73 125.043 228.308 124.608 227.73 124.259C227.152 123.915 226.424 123.703 225.546 123.624C224.668 123.545 223.914 123.623 223.284 123.859C222.653 124.099 222.161 124.452 221.806 124.919C221.451 125.39 221.245 125.932 221.19 126.546C221.16 126.883 221.177 127.21 221.241 127.529C221.306 127.848 221.417 128.142 221.576 128.413C221.738 128.687 221.944 128.925 222.196 129.127C222.45 129.333 222.749 129.488 223.092 129.592L222.982 130.82C222.472 130.681 222.023 130.471 221.636 130.19C221.248 129.909 220.928 129.574 220.673 129.185C220.422 128.796 220.242 128.369 220.134 127.904C220.026 127.441 219.995 126.954 220.041 126.443C220.119 125.578 220.4 124.828 220.883 124.192C221.366 123.557 222.015 123.081 222.828 122.765C223.642 122.449 224.584 122.339 225.653 122.435C226.723 122.531 227.63 122.808 228.374 123.264C229.118 123.721 229.671 124.304 230.033 125.016C230.395 125.727 230.537 126.515 230.459 127.38C230.413 127.892 230.296 128.366 230.107 128.801C229.918 129.24 229.663 129.628 229.343 129.965C229.027 130.303 228.653 130.575 228.221 130.783C227.793 130.991 227.314 131.117 226.785 131.163Z" fill="white"/>
<path d="M227.535 139.493L228.599 139.744L226.843 147.176L225.778 146.924L226.515 143.809L217.67 141.718L217.954 140.518L226.798 142.609L227.535 139.493Z" fill="white"/>
<path d="M224.064 155.776L214.47 152.368L214.882 151.206L224.477 154.614L224.064 155.776Z" fill="white"/>
<path d="M220.686 164.231L211.658 163.179L211.606 163.286L217.976 169.768L217.408 170.929L209.906 163.096L210.465 161.953L221.254 163.07L220.686 164.231Z" fill="white"/>
<path d="M212.635 178.889L204.058 173.404L204.722 172.365L213.3 177.851L212.635 178.889Z" fill="white"/>
<path d="M207.207 184.88L208.059 185.566L203.269 191.513L202.417 190.827L204.425 188.333L197.348 182.632L198.121 181.672L205.199 187.373L207.207 184.88Z" fill="white"/>
<path d="M198.443 196.809L197.415 197.777L192.101 196.251L192.014 196.333L193.215 201.73L192.187 202.697L190.763 195.817L187.888 192.761L188.785 191.916L191.661 194.972L198.443 196.809Z" fill="white"/>
</svg>
